# xmcd
#
# Track frame offsets: 
#        150
#        14400
#        31992
#        52957
#        76674
#        94477
#        112963
#        132604
#        152392
#        171084
#        186059
#        203199
#        220749
#        239831
#        257988
#        275022
#        295299
#        313598
#        333776
#
# Disc length: 4713 seconds
#
# Revision: 0
# Processed by: cddbd v1.5.1PL0 Copyright (c) Steve Scherf et al.
# Submitted via: ExactAudioCopy v0.95a5
#
DISCID=12126713
DTITLE=Various Artist - Class
DYEAR=2000
DGENRE=Pop
TTITLE0=proud of you
TTITLE1=u make me wanna
TTITLE2=brow eyes
TTITLE3=on't wanna be
TTITLE4=just a fantasy
TTITLE5=leep on loving you
TTITLE6=if i could
TTITLE7=let him go
TTITLE8=would you please come home
TTITLE9=doctor jones
TTITLE10=still belive
TTITLE11=the look
TTITLE12=colors of the wind
TTITLE13=a whole new wold
TTITLE14=love is only just a dream
TTITLE15=my dream
TTITLE16=baby i'm sorry
TTITLE17=in my heart
TTITLE18=i belive
EXTD=
EXTT0=
EXTT1=
EXTT2=
EXTT3=
EXTT4=
EXTT5=
EXTT6=
EXTT7=
EXTT8=
EXTT9=
EXTT10=
EXTT11=
EXTT12=
EXTT13=
EXTT14=
EXTT15=
EXTT16=
EXTT17=
EXTT18=
PLAYORDER=
